<?xml version="1.0" standalone="no"?><!-- Generator: Gravit.io --><svg xmlns="http://www.w3.org/2000/svg" xmlns:xlink="http://www.w3.org/1999/xlink" style="isolation:isolate" viewBox="0 0 130 130" width="130" height="130"><defs><clipPath id="_clipPath_8wFnlBINgUggEwm2qJu3Xu3m5mTG3SRu"><rect width="130" height="130"/></clipPath></defs><g clip-path="url(#_clipPath_8wFnlBINgUggEwm2qJu3Xu3m5mTG3SRu)"><g id="cat"><g id="Group"><g id="Group"><g id="Group"><g id="Group"><path d=" M 6 65 C 6 30.781 32.437 3 65 3 C 97.563 3 124 30.781 124 65 C 124 99.219 97.563 127 65 127 C 32.437 127 6 99.219 6 65 Z " fill="none" vector-effect="non-scaling-stroke" stroke-width="1" stroke="#bdbdbd  " stroke-linejoin="miter" stroke-linecap="square" stroke-miterlimit="3"/><clipPath id="_clipPath_9SNr1QKFiQYAn5y6i7n4WpyXIeX1Xboh"><rect x="37" y="32" width="61" height="73" transform="matrix(1,0,0,1,0,0)" fill="rgb(255,255,255)"/></clipPath><g clip-path="url(#_clipPath_9SNr1QKFiQYAn5y6i7n4WpyXIeX1Xboh)"><path d=" M 84.613 63.906 C 82.078 57.564 76.386 54.35 76.386 54.35 C 88.696 47.017 85.602 57.562 84.613 63.906 L 84.613 63.906 Z  M 45.675 63.906 C 44.685 57.562 41.592 47.017 53.901 54.35 C 53.901 54.35 48.211 57.564 45.675 63.906 L 45.675 63.906 Z  M 90.203 45.85 C 90.533 43.559 89.031 44.045 88.567 44.246 L 88.428 44.309 L 88.427 44.311 L 73.863 50.867 C 73.863 50.867 73.863 50.867 73.861 50.867 C 72.722 51.377 71.466 51.036 71.466 51.036 C 71.466 51.036 71.466 51.054 71.466 51.058 C 69.467 50.4 67.371 50.02 65.191 50.02 C 62.801 50.02 60.51 50.479 58.339 51.267 C 58.32 51.27 58.311 51.256 58.292 51.261 C 57.79 51.437 56.924 51.261 56.924 51.261 L 41.099 44.132 L 41.097 44.132 C 39.595 43.457 39.755 45.586 39.755 45.586 L 43.2 64.831 C 43.2 64.831 43.417 67.044 43.014 68.52 C 43.003 68.559 43.016 68.584 43.01 68.621 C 42.16 71.486 41.673 74.552 41.673 77.759 C 41.673 93.08 52.202 105.5 65.192 105.5 C 78.182 105.5 88.711 93.08 88.711 77.759 C 88.711 74.773 88.279 71.918 87.535 69.227 C 87.527 69.182 87.534 69.148 87.521 69.101 C 87.201 67.862 87.405 65.122 87.405 65.122 L 90.203 45.85 L 90.203 45.85 Z " fill="rgb(70,70,70)"/></g></g></g></g></g></g></g></svg>