<?xml version="1.0" standalone="no"?><!-- Generator: Gravit.io --><svg xmlns="http://www.w3.org/2000/svg" xmlns:xlink="http://www.w3.org/1999/xlink" style="isolation:isolate" viewBox="0 0 50 50" width="45" height="45"><defs><clipPath id="_clipPath_gz88WuebZoNeqNXxqzdDiudAA9P7vNsX"><rect width="50" height="50"/></clipPath></defs><g clip-path="url(#_clipPath_gz88WuebZoNeqNXxqzdDiudAA9P7vNsX)"><path d=" M 3 25 C 3 11.754 12.858 1 25 1 C 37.142 1 47 11.754 47 25 C 47 38.246 37.142 49 25 49 C 12.858 49 3 38.246 3 25 Z " fill="rgb(255,255,255)" vector-effect="non-scaling-stroke" stroke-width="0.65" stroke="#464646" stroke-linejoin="miter" stroke-linecap="square" stroke-miterlimit="3"/><clipPath id="_clipPath_BmFOB5AsYDupgXIgGxaKDEDnNEsuHiUK"><path d=" M 3 25 C 3 11.754 12.858 1 25 1 C 37.142 1 47 11.754 47 25 C 47 38.246 37.142 49 25 49 C 12.858 49 3 38.246 3 25 Z " fill="rgb(255,255,255)" vector-effect="non-scaling-stroke" stroke-width="1" stroke="#464646" stroke-linejoin="miter" stroke-linecap="square" stroke-miterlimit="3"/></clipPath><g clip-path="url(#_clipPath_BmFOB5AsYDupgXIgGxaKDEDnNEsuHiUK)"><g id="mail"><path d=" M 36 29.25 C 36 29.71 35.864 30.137 35.647 30.513 L 28.701 23.094 L 35.572 17.356 C 35.839 17.761 36 18.236 36 18.75 L 36 29.25 Z  M 25 24.441 L 34.561 16.456 C 34.168 16.251 33.727 16.125 33.25 16.125 L 16.75 16.125 C 16.273 16.125 15.831 16.251 15.44 16.456 L 25 24.441 Z  M 27.665 23.958 L 25.452 25.807 C 25.323 25.915 25.162 25.969 25 25.969 C 24.838 25.969 24.677 25.915 24.548 25.807 L 22.334 23.958 L 15.3 31.471 C 15.721 31.724 16.216 31.875 16.75 31.875 L 33.25 31.875 C 33.784 31.875 34.279 31.724 34.7 31.471 L 27.665 23.958 Z  M 14.428 17.356 C 14.161 17.761 14 18.236 14 18.75 L 14 29.25 C 14 29.71 14.135 30.137 14.353 30.513 L 21.299 23.093 L 14.428 17.356 Z " fill="#464646"/></g></g></g></svg>