<?xml version="1.0" standalone="no"?><!-- Generator: Gravit.io --><svg xmlns="http://www.w3.org/2000/svg" xmlns:xlink="http://www.w3.org/1999/xlink" style="isolation:isolate" viewBox="0 0 25 25" width="25" height="25"><defs><clipPath id="_clipPath_DfjlwiMnHQDUXVaE6lcL0DrlWJHdNKjX"><rect width="25" height="25"/></clipPath></defs><g clip-path="url(#_clipPath_DfjlwiMnHQDUXVaE6lcL0DrlWJHdNKjX)"><g id="Group"><path d=" M -59 -15.5 C -59 -28.47 -48.47 -39 -35.5 -39 C -22.53 -39 -12 -28.47 -12 -15.5 C -12 -2.53 -22.53 8 -35.5 8 C -48.47 8 -59 -2.53 -59 -15.5 Z " fill="none" vector-effect="non-scaling-stroke" stroke-width="1" stroke="rgb(0,0,0)" stroke-linejoin="miter" stroke-linecap="square" stroke-miterlimit="3"/><line x1="-35.5" y1="-28.66" x2="-35.5" y2="-4.22" vector-effect="non-scaling-stroke" stroke-width="1" stroke="rgb(0,0,0)" stroke-linejoin="miter" stroke-linecap="square" stroke-miterlimit="3"/><line x1="-35.5" y1="-28.66" x2="-44.9" y2="-17.38" vector-effect="non-scaling-stroke" stroke-width="1" stroke="rgb(0,0,0)" stroke-linejoin="miter" stroke-linecap="square" stroke-miterlimit="3"/><line x1="-35.5" y1="-28.66" x2="-26.1" y2="-17.38" vector-effect="non-scaling-stroke" stroke-width="1" stroke="rgb(0,0,0)" stroke-linejoin="miter" stroke-linecap="square" stroke-miterlimit="3"/></g><g id="stack"><rect x="8.363" y="9.42" width="8.487" height="1.812" transform="matrix(-0.861,-0.508,0.508,-0.861,18.22,25.625)" fill="rgb(255,153,0)"/><rect x="7.102" y="12.63" width="8.487" height="1.813" transform="matrix(-0.966,-0.26,0.26,-0.966,18.788,29.553)" fill="rgb(255,153,0)"/><rect x="6.629" y="15.74" width="8.487" height="1.812" transform="matrix(-0.996,-0.092,0.092,-0.996,20.17,34.221)" fill="rgb(255,153,0)"/><rect x="6.443" y="18.449" width="8.488" height="1.813" transform="matrix(1,0,0,1,0,0)" fill="rgb(255,153,0)"/><path d=" M 18.257 22.991 C 18.257 22.991 18.257 23.414 18.243 23.414 L 18.243 23.421 L 4.663 23.421 C 4.663 23.421 4.239 23.421 4.239 23.414 L 4.225 23.414 L 4.225 14.582 L 5.675 14.582 L 5.675 21.992 L 13.41 21.992 L 16.807 21.992 L 16.807 14.582 L 18.257 14.582 L 18.257 22.991 Z " fill="rgb(139,139,139)"/><rect x="11.16" y="6.455" width="8.487" height="1.813" transform="matrix(0.563,0.826,-0.826,0.563,12.807,-9.512)" fill="rgb(255,153,0)"/><rect x="14.798" y="5.011" width="8.487" height="1.813" transform="matrix(0.199,0.98,-0.98,0.199,21.047,-13.921)" fill="rgb(255,153,0)"/></g></g></svg>













