<?xml version="1.0" standalone="no"?><!-- Generator: Gravit.io --><svg xmlns="http://www.w3.org/2000/svg" xmlns:xlink="http://www.w3.org/1999/xlink" style="isolation:isolate" viewBox="0 0 60 60" width="60" height="60"><defs><clipPath id="_clipPath_AuDJhA4dwSKutxZtXpzA32aSvfrrySZH"><rect width="60" height="60"/></clipPath></defs><g clip-path="url(#_clipPath_AuDJhA4dwSKutxZtXpzA32aSvfrrySZH)"><path d=" M 0 487 C 0 471.822 17.475 459.5 39 459.5 C 60.525 459.5 78 471.822 78 487 C 78 502.178 60.525 514.5 39 514.5 C 17.475 514.5 0 502.178 0 487 Z " fill="rgb(235,235,235)"/><path d=" M 195 334.5 C 226.556 361.943 251.576 296.963 220 293.5" fill="none" vector-effect="non-scaling-stroke" stroke-width="2" stroke="rgb(0,0,0)" stroke-linejoin="miter" stroke-linecap="square" stroke-miterlimit="3"/><g id="Group"><path d=" M 4 30 C 4 14.546 15.65 2 30 2 C 44.35 2 56 14.546 56 30 C 56 45.454 44.35 58 30 58 C 15.65 58 4 45.454 4 30 Z " fill="none" vector-effect="non-scaling-stroke" stroke-width="1" stroke="rgb(0,0,0)" stroke-linejoin="miter" stroke-linecap="square" stroke-miterlimit="3"/><line x1="30" y1="14" x2="30" y2="58"/><line x1="30" y1="15" x2="30" y2="17"/><path d=" M 30 15 L 30 16 L 30 17" fill="none"/><line x1="30" y1="15" x2="30" y2="15"/><line x1="30" y1="14" x2="19" y2="27" vector-effect="non-scaling-stroke" stroke-width="2" stroke="rgb(63,114,155)" stroke-linejoin="miter" stroke-linecap="square" stroke-miterlimit="3"/><line x1="30" y1="14" x2="40" y2="27" vector-effect="non-scaling-stroke" stroke-width="2" stroke="rgb(63,114,155)" stroke-linejoin="miter" stroke-linecap="square" stroke-miterlimit="3"/><g transform="matrix(1,0,0,1,8.375,34)"><text transform="matrix(1,0,0,1,0,7.482)" style="font-family:&quot;Open Sans&quot;;font-weight:400;font-size:7px;font-style:normal;fill:#000000;stroke:none;"></text></g></g></g></svg>