<?xml version="1.0" standalone="no"?><!-- Generator: Gravit.io --><svg xmlns="http://www.w3.org/2000/svg" xmlns:xlink="http://www.w3.org/1999/xlink" height="38px"  style="enable-background:new 0 0 512 512;" version="1.1"  width="38px" 
><defs><clipPath id="_clipPath_5EzgbCyy80Znk9iKrCHCxcrNnmfTBxiJ"><rect width="100" height="100"/></clipPath></defs><g clip-path="url(#_clipPath_5EzgbCyy80Znk9iKrCHCxcrNnmfTBxiJ)"><g id="location"><path d=" M 49.866 26.968 C 41.055 27.054 33.946 33.16 34.021 40.769 C 34.037 42.456 34.472 44.292 35.238 45.94 L 35.226 45.94 L 35.299 46.063 C 35.36 46.176 35.42 46.288 35.481 46.401 L 50.318 73.033 L 64.559 46.249 L 64.63 46.125 C 64.688 46.011 64.758 45.897 64.817 45.773 L 64.863 45.66 C 65.621 43.997 65.997 42.245 65.979 40.476 C 65.905 32.847 58.677 26.881 49.866 26.968 Z  M 50.042 44.952 C 46.959 44.982 44.437 42.847 44.411 40.184 C 44.385 37.521 46.864 35.337 49.948 35.307 C 53.032 35.276 55.553 37.411 55.58 40.074 C 55.606 42.738 53.126 44.921 50.042 44.952 Z " fill="rgb(0,0,0)"/></g><g id="Group"><g id="Group"><g id="Group"><path d=" M 10 50 C 10 27.923 27.923 10 50 10 C 72.077 10 90 27.923 90 50 C 90 72.077 72.077 90 50 90 C 27.923 90 10 72.077 10 50 Z " fill="none" vector-effect="non-scaling-stroke" stroke-width="0.788" stroke="rgb(0,0,0)" stroke-linejoin="miter" stroke-linecap="square" stroke-miterlimit="3"/></g></g></g></g></svg>