<?xml version="1.0" standalone="no"?><!-- Generator: Gravit.io --><svg xmlns="http://www.w3.org/2000/svg" xmlns:xlink="http://www.w3.org/1999/xlink" style="isolation:isolate" viewBox="0 0 700 700" width="30" height="30"><defs><clipPath id="_clipPath_HaPcfvqInCXaIYbh4AjGvceq2bjpcagm"><rect width="30" height="30"/></clipPath></defs><g clip-path="url(#_clipPath_HaPcfvqInCXaIYbh4AjGvceq2bjpcagm)"><g id="location"><path d=" M 359.76 166.411 C 350.949 166.497 343.84 172.603 343.914 180.212 C 343.931 181.899 344.366 183.735 345.132 185.383 L 345.12 185.384 L 345.193 185.506 C 345.253 185.619 345.314 185.731 345.375 185.844 L 360.212 212.477 L 374.453 185.692 L 374.523 185.568 C 374.582 185.454 374.652 185.341 374.71 185.217 L 374.757 185.103 C 375.515 183.44 375.891 181.688 375.873 179.919 C 375.798 172.29 368.571 166.324 359.76 166.411 Z  M 359.936 184.395 C 356.852 184.425 354.331 182.29 354.304 179.627 C 354.278 176.964 356.758 174.78 359.842 174.75 C 362.926 174.72 365.447 176.854 365.473 179.518 C 365.499 182.181 363.02 184.365 359.936 184.395 Z " fill="#000"/></g><g id="Group"><g id="Group"><path d=" M 309.414 189.443 C 309.414 161.295 332.033 138.443 359.894 138.443 C 387.754 138.443 410.374 161.295 410.374 189.443 C 410.374 217.591 387.754 240.443 359.894 240.443 C 332.033 240.443 309.414 217.591 309.414 189.443 Z " fill="none" vector-effect="non-scaling-stroke" stroke-width="1" stroke="#000" stroke-linejoin="miter" stroke-linecap="square" stroke-miterlimit="3"/></g></g></g></svg>