<?xml version="1.0" standalone="no"?><!-- Generator: Gravit.io --><svg xmlns="http://www.w3.org/2000/svg" xmlns:xlink="http://www.w3.org/1999/xlink" style="isolation:isolate" viewBox="0 0 50 50" width="50" height="50"><defs><clipPath id="_clipPath_16S7ff6zmnWJfRPhjmBk1h59VeojPtpf"><rect width="50" height="50"/></clipPath></defs><g clip-path="url(#_clipPath_16S7ff6zmnWJfRPhjmBk1h59VeojPtpf)"><g id="Mask"><g id="Group"><g id="Group"><path d=" M 5 23 C 5 11.962 13.962 3 25 3 C 36.038 3 45 11.962 45 23 C 45 34.038 36.038 43 25 43 C 13.962 43 5 34.038 5 23 Z " fill="none" vector-effect="non-scaling-stroke" stroke-width="0.65" stroke="rgb(71,71,71)" stroke-linejoin="miter" stroke-linecap="square" stroke-miterlimit="3"/></g></g><g id="location"><path d=" M 24.933 11.484 C 20.527 11.527 16.973 14.58 17.01 18.385 C 17.019 19.228 17.236 20.146 17.619 20.97 L 17.613 20.97 L 17.65 21.032 C 17.68 21.088 17.71 21.144 17.741 21.2 L 25.159 34.517 L 32.28 21.124 L 32.315 21.062 C 32.344 21.006 32.379 20.949 32.408 20.887 L 32.432 20.83 C 32.81 19.998 32.998 19.122 32.99 18.238 C 32.952 14.423 29.339 11.441 24.933 11.484 Z  M 25.021 20.476 C 23.479 20.491 22.218 19.424 22.205 18.092 C 22.192 16.76 23.432 15.668 24.974 15.653 C 26.516 15.638 27.777 16.706 27.79 18.037 C 27.803 19.369 26.563 20.461 25.021 20.476 Z " fill="rgb(71,71,71)"/></g></g></g></svg>