<?xml version="1.0" standalone="no"?><!-- Generator: Gravit.io --><svg xmlns="http://www.w3.org/2000/svg" xmlns:xlink="http://www.w3.org/1999/xlink" style="isolation:isolate" viewBox="0 0 50 50" width="45" height="45"><defs><clipPath id="_clipPath_kjlmy4GzHZsqmZraSFdZE7RwrUWnhBcL"><rect width="55" height="55"/></clipPath></defs><g clip-path="url(#_clipPath_kjlmy4GzHZsqmZraSFdZE7RwrUWnhBcL)"><path d=" M 3 26 C 3 12.754 12.858 2 25 2 C 37.142 2 47 12.754 47 26 C 47 39.246 37.142 50 25 50 C 12.858 50 3 39.246 3 26 Z " fill="rgb(255,255,255)" vector-effect="non-scaling-stroke" stroke-width="0.65" stroke="rgb(0,0,0)" stroke-linejoin="miter" stroke-linecap="square" stroke-miterlimit="3"/><clipPath id="_clipPath_qJ1qTqUKH4pmm0pkaoi1w9Yi7stYmIjW"><path d=" M 3 26 C 3 12.754 12.858 2 25 2 C 37.142 2 47 12.754 47 26 C 47 39.246 37.142 50 25 50 C 12.858 50 3 39.246 3 26 Z " fill="rgb(255,255,255)" vector-effect="non-scaling-stroke" stroke-width="0.65" stroke="rgb(0,0,0)" stroke-linejoin="miter" stroke-linecap="square" stroke-miterlimit="3"/></clipPath><g clip-path="url(#_clipPath_qJ1qTqUKH4pmm0pkaoi1w9Yi7stYmIjW)"><g id="mail"><path d=" M 37.5 31.25 C 37.5 31.798 37.346 32.306 37.099 32.753 L 29.205 23.921 L 37.013 17.09 C 37.317 17.572 37.5 18.138 37.5 18.75 L 37.5 31.25 Z  M 25 25.525 L 35.865 16.019 C 35.419 15.775 34.917 15.625 34.375 15.625 L 15.625 15.625 C 15.083 15.625 14.581 15.775 14.137 16.019 L 25 25.525 Z  M 28.029 24.95 L 25.514 27.152 C 25.367 27.28 25.184 27.344 25 27.344 C 24.816 27.344 24.633 27.28 24.486 27.152 L 21.97 24.95 L 13.977 33.894 C 14.456 34.195 15.018 34.375 15.625 34.375 L 34.375 34.375 C 34.982 34.375 35.544 34.195 36.023 33.894 L 28.029 24.95 Z  M 12.987 17.09 C 12.683 17.572 12.5 18.138 12.5 18.75 L 12.5 31.25 C 12.5 31.798 12.653 32.306 12.901 32.753 L 20.794 23.92 L 12.987 17.09 Z " fill="rgb(0,0,0)"/></g></g></g></svg>