<?xml version="1.0" standalone="no"?>
<!DOCTYPE svg PUBLIC "-//W3C//DTD SVG 20010904//EN"
 "http://www.w3.org/TR/2001/REC-SVG-20010904/DTD/svg10.dtd">
<svg version="1.0" xmlns="http://www.w3.org/2000/svg"
 width="100.000000pt" height="300.000000pt" viewBox="0 0 200.000000 600.000000"
 preserveAspectRatio="xMidYMid meet">
<metadata>
Created by potrace 1.15, written by Peter Selinger 2001-2017
</metadata>
<g transform="translate(0.000000,600.000000) scale(0.100000,-0.100000)"
fill="#000000" stroke-width="4" stroke="rgb(0,0,0)" stroke-linejoin="miter" stroke-linecap="square" stroke-miterlimit="3">
<path d="M1000 5685 l0 -275 -60 0 c-261 0 -535 -178 -610 -396 -43 -123 -35
-259 21 -374 41 -83 159 -203 249 -252 104 -57 255 -98 363 -98 l37 0 0 -375
0 -375 -62 0 c-183 0 -432 -131 -526 -277 -69 -108 -77 -136 -77 -279 l0 -130
37 -75 c97 -197 306 -327 571 -354 l57 -6 0 -365 0 -364 -52 0 c-29 0 -90 -9
-135 -20 -187 -45 -349 -162 -430 -310 -45 -82 -56 -135 -51 -252 3 -94 7
-110 41 -182 89 -189 309 -327 557 -352 l70 -7 0 -263 c0 -169 4 -264 10 -264
6 0 10 94 10 263 l0 263 93 12 c106 13 214 47 295 93 84 48 202 170 240 249
101 211 47 442 -142 602 -120 101 -294 168 -436 168 l-50 0 0 364 0 365 58 6
c103 10 224 45 306 88 106 54 218 164 264 258 65 134 65 294 0 429 -88 183
-349 340 -565 340 l-63 0 0 373 0 374 84 12 c234 33 438 167 522 345 35 73 38
88 42 186 3 84 1 119 -13 161 -46 144 -159 267 -313 344 -79 39 -213 75 -279
75 l-43 0 0 275 c0 177 -4 275 -10 275 -6 0 -10 -98 -10 -275z m180 -320 c117
-28 223 -88 311 -174 90 -89 133 -168 151 -276 39 -234 -133 -465 -417 -561
-108 -36 -285 -45 -401 -19 -241 53 -439 224 -483 416 -26 109 -2 246 57 340
63 99 183 193 310 245 133 53 321 65 472 29z m-41 -1856 c150 -24 282 -90 385
-193 97 -97 146 -207 146 -331 0 -228 -169 -418 -450 -506 -108 -34 -312 -34
-420 0 -442 138 -588 549 -299 840 156 156 400 229 638 190z m7 -1854 c154
-27 274 -88 378 -192 261 -260 164 -635 -208 -803 -103 -47 -201 -63 -340 -58
-96 4 -138 11 -201 32 -283 96 -457 330 -418 562 39 224 246 410 510 458 104
19 173 19 279 1z"/>
<path d="M686 5082 c-3 -5 5 -47 19 -93 16 -57 21 -88 14 -100 -5 -10 -9 -39
-9 -64 0 -129 119 -219 290 -219 92 0 163 23 217 69 61 52 75 89 71 193 -2 51
3 112 11 149 8 34 12 65 9 68 -3 4 -52 -7 -109 -23 -89 -24 -120 -28 -214 -27
-101 2 -155 12 -275 50 -10 3 -21 2 -24 -3z"/>
<path d="M1275 3249 c-16 -6 -50 -7 -74 -4 -25 3 -50 0 -57 -6 -9 -7 -19 -7
-31 0 -29 15 -256 -4 -334 -28 -130 -41 -182 -104 -159 -193 28 -105 58 -120
255 -129 167 -8 206 -18 248 -68 46 -55 32 -129 -33 -185 -18 -14 -38 -26 -46
-26 -8 0 -14 -4 -14 -10 0 -30 81 17 115 68 27 39 33 100 15 146 -23 61 -158
106 -318 106 -56 0 -87 5 -118 21 -48 23 -59 44 -50 94 12 63 87 101 183 93
28 -3 31 -6 26 -29 -7 -38 33 -96 66 -96 14 0 35 -3 45 -8 16 -7 18 -5 13 9
-5 11 -3 15 5 10 8 -5 9 -2 5 10 -4 10 -7 21 -7 26 0 4 -14 13 -30 20 -29 12
-29 13 -12 26 13 9 40 11 95 7 76 -6 77 -6 77 -34 0 -18 10 -36 31 -53 41 -35
50 -33 44 10 -4 31 -2 34 10 24 8 -7 13 -16 10 -20 -6 -9 41 -31 49 -23 11 11
6 43 -6 43 -7 1 5 10 26 20 22 11 46 26 55 33 9 8 24 17 34 20 28 10 20 33
-32 87 -27 27 -50 50 -52 49 -2 0 -17 -5 -34 -10z"/>
<path d="M752 1378 c-8 -8 -12 -61 -12 -174 0 -153 -1 -162 -20 -167 -11 -3
-20 -12 -20 -21 0 -14 35 -16 330 -16 295 0 330 2 330 16 0 9 -9 18 -20 21
-19 5 -20 14 -20 167 0 113 -4 166 -12 174 -17 17 -539 17 -556 0z m518 -163
l0 -135 -240 0 -240 0 0 135 0 135 240 0 240 0 0 -135z"/>
</g>
</svg>
